/* XPM */
static char * xpm[] = {
"64 64 4 1",
"S c #6EC5FF",
"Y c #F1C40F",
"O c #D68910",
"H c #F9E79F",
"SSSSSSSSSSSSSSSSSSSSSSSSSSSSSSSSSSSSSSSSSSSSSSSSSSSSSSSSSSSSSSSS",
"SSSSSSSSSSSSSSSSSSSSSSSSSSSSSSSSSSSSSSSSSSSSSSSSSSSSSSSSSSSSSSSS",
"SSSSSSSSSSSSSSSSSSSSSSSSSSSSSSSSSSSSSSSSSSSSSSSSSSSSSSSSSSSSSSSS",
"SSSSSSSSSSSSSSSSSSSSSSSSSSSSSSSSSSSSSSSSSSSSSSSSSSSSSSSSSSSSSSSS",
"SSSSSSSSSSSSSSSSSSSSSSSSSSSSSSSSSSSSSSSSSSSSSSSSSSSSSSSSSSSSSSSS",
"SSSSSSSSSSSSSSSSSSSSSSSSSSSSSSSSSSSSSSSSSSSSSSSSSSSSSSSSSSSSSSSS",
"SSSSSSSSSSSSSSSSSSSSSSSSSSSSSSSSSSSSSSSSSSSSSSSSSSSSSSSSSSSSSSSS",
"SSSSSSSSSSSSSSSSSSSSSSSSSSSSSSSSSSSSSSSSSSSSSSSSSSSSSSSSSSSSSSSS",
"SSSSSSSSSSSSSSSSSSSSSSSSSSSSSSSSSSSSSSSSSSSSSSSSSSSSSSSSSSSSSSSS",
"SSSSSSSSSSSSSSSSSSSSSSSSSSSSSSSSSSSSSSSSSSSSSSSSSSSSSSSSSSSSSSSS",
"SSSSSSSSSSSSSSSSSSSSSSSSSSSSSSSSSSSSSSSSSSSSSSSSSSSSSSSSSSSSSSSS",
"SSSSSSSSSSSSSSSSSSSSSSSSSSSSSSSSSSSSSSSSSSSSSSSSSSSSSSSSSSSSSSSS",
"SSSSSSSSSSSSSSSSSSSSSSSSSSSSSSSSOSSSSSSSSSSSSSSSSSSSSSSSSSSSSSSS",
"SSSSSSSSSSSSSSSSSSSSSSSSSSOOOOOOOOOOOOOSSSSSSSSSSSSSSSSSSSSSSSSS",
"SSSSSSSSSSSSSSSSSSSSSSSSOOOOOOOOOOOOOOOOOSSSSSSSSSSSSSSSSSSSSSSS",
"SSSSSSSSSSSSSSSSSSSSSSOOOOOOOOOOOOOOOOOOOOOSSSSSSSSSSSSSSSSSSSSS",
"SSSSSSSSSSSSSSSSSSSSOOOOOOOOOOOOOOOOOOOOOOOOOSSSSSSSSSSSSSSSSSSS",
"SSSSSSSSSSSSSSSSSSSOOOOOOOOOOOOOOOOOOOOOOOOOOOSSSSSSSSSSSSSSSSSS",
"SSSSSSSSSSSSSSSSSSOOOOOOOOOYYYYYYYYYYYOOOOOOOOOSSSSSSSSSSSSSSSSS",
"SSSSSSSSSSSSSSSSSOOOOOOOOYYYYYYYYYYYYYYYOOOOOOOOSSSSSSSSSSSSSSSS",
"SSSSSSSSSSSSSSSSOOOOOOOOYYYYYYYYYYYYYYHHHOOOOOOOOSSSSSSSSSSSSSSS",
"SSSSSSSSSSSSSSSSOOOOOOYYYYYYYYYYYYYYYYHHHYYOOOOOOSSSSSSSSSSSSSSS",
"SSSSSSSSSSSSSSSOOOOOOYYYYYYYYYYYYYYYYYHHHYYYOOOOOOSSSSSSSSSSSSSS",
"SSSSSSSSSSSSSSSOOOOOOYYYYYYYYYYYYYYYYYHHHYYYOOOOOOSSSSSSSSSSSSSS",
"SSSSSSSSSSSSSSOOOOOOYYYYYYYYYYYYYYYYYYHHHYYYYOOOOOOSSSSSSSSSSSSS",
"SSSSSSSSSSSSSSOOOOOYYYYYYYYYYYYYYYYYYYHHHYYYYYOOOOOSSSSSSSSSSSSS",
"SSSSSSSSSSSSSOOOOOOYYYYYYYYYYYYYYYYYYYHHHYYYYYOOOOOOSSSSSSSSSSSS",
"SSSSSSSSSSSSSOOOOOYYYYYYYYYYYYYYYYYYYYHHHYYYYYYOOOOOSSSSSSSSSSSS",
"SSSSSSSSSSSSSOOOOOYYYYYYYYYYYYYYYYYYYYHHHYYYYYYOOOOOSSSSSSSSSSSS",
"SSSSSSSSSSSSSOOOOOYYYYYYYYYYYYYYYYYYYYHHHYYYYYYOOOOOSSSSSSSSSSSS",
"SSSSSSSSSSSSSOOOOOYYYYYYYYYYYYYYYYYYYYHHHYYYYYYOOOOOSSSSSSSSSSSS",
"SSSSSSSSSSSSSOOOOOYYYYYYYYYYYYYYYYYYYYHHHYYYYYYOOOOOSSSSSSSSSSSS",
"SSSSSSSSSSSSOOOOOOYYYYYYYYYYYYYYYYYYYYHHHYYYYYYOOOOOOSSSSSSSSSSS",
"SSSSSSSSSSSSSOOOOOYYYYYYYYYYYYYYYYYYYYHHHYYYYYYOOOOOSSSSSSSSSSSS",
"SSSSSSSSSSSSSOOOOOYYYYYYYYYYYYYYYYYYYYHHHYYYYYYOOOOOSSSSSSSSSSSS",
"SSSSSSSSSSSSSOOOOOYYYYYYYYYYYYYYYYYYYYHHHYYYYYYOOOOOSSSSSSSSSSSS",
"SSSSSSSSSSSSSOOOOOYYYYYYYYYYYYYYYYYYYYHHHYYYYYYOOOOOSSSSSSSSSSSS",
"SSSSSSSSSSSSSOOOOOYYYYYYYYYYYYYYYYYYYYHHHYYYYYYOOOOOSSSSSSSSSSSS",
"SSSSSSSSSSSSSOOOOOOYYYYYYYYYYYYYYYYYYYHHHYYYYYOOOOOOSSSSSSSSSSSS",
"SSSSSSSSSSSSSSOOOOOYYYYYYYYYYYYYYYYYYYHHHYYYYYOOOOOSSSSSSSSSSSSS",
"SSSSSSSSSSSSSSOOOOOOYYYYYYYYYYYYYYYYYYHHHYYYYOOOOOOSSSSSSSSSSSSS",
"SSSSSSSSSSSSSSSOOOOOOYYYYYYYYYYYYYYYYYHHHYYYOOOOOOSSSSSSSSSSSSSS",
"SSSSSSSSSSSSSSSOOOOOOYYYYYYYYYYYYYYYYYHHHYYYOOOOOOSSSSSSSSSSSSSS",
"SSSSSSSSSSSSSSSSOOOOOOYYYYYYYYYYYYYYYYHHHYYOOOOOOSSSSSSSSSSSSSSS",
"SSSSSSSSSSSSSSSSOOOOOOOOYYYYYYYYYYYYYYYYYOOOOOOOOSSSSSSSSSSSSSSS",
"SSSSSSSSSSSSSSSSSOOOOOOOOYYYYYYYYYYYYYYYOOOOOOOOSSSSSSSSSSSSSSSS",
"SSSSSSSSSSSSSSSSSSOOOOOOOOOYYYYYYYYYYYOOOOOOOOOSSSSSSSSSSSSSSSSS",
"SSSSSSSSSSSSSSSSSSSOOOOOOOOOOOOOOOOOOOOOOOOOOOSSSSSSSSSSSSSSSSSS",
"SSSSSSSSSSSSSSSSSSSSOOOOOOOOOOOOOOOOOOOOOOOOOSSSSSSSSSSSSSSSSSSS",
"SSSSSSSSSSSSSSSSSSSSSSOOOOOOOOOOOOOOOOOOOOOSSSSSSSSSSSSSSSSSSSSS",
"SSSSSSSSSSSSSSSSSSSSSSSSOOOOOOOOOOOOOOOOOSSSSSSSSSSSSSSSSSSSSSSS",
"SSSSSSSSSSSSSSSSSSSSSSSSSSOOOOOOOOOOOOOSSSSSSSSSSSSSSSSSSSSSSSSS",
"SSSSSSSSSSSSSSSSSSSSSSSSSSSSSSSSOSSSSSSSSSSSSSSSSSSSSSSSSSSSSSSS",
"SSSSSSSSSSSSSSSSSSSSSSSSSSSSSSSSSSSSSSSSSSSSSSSSSSSSSSSSSSSSSSSS",
"SSSSSSSSSSSSSSSSSSSSSSSSSSSSSSSSSSSSSSSSSSSSSSSSSSSSSSSSSSSSSSSS",
"SSSSSSSSSSSSSSSSSSSSSSSSSSSSSSSSSSSSSSSSSSSSSSSSSSSSSSSSSSSSSSSS",
"SSSSSSSSSSSSSSSSSSSSSSSSSSSSSSSSSSSSSSSSSSSSSSSSSSSSSSSSSSSSSSSS",
"SSSSSSSSSSSSSSSSSSSSSSSSSSSSSSSSSSSSSSSSSSSSSSSSSSSSSSSSSSSSSSSS",
"SSSSSSSSSSSSSSSSSSSSSSSSSSSSSSSSSSSSSSSSSSSSSSSSSSSSSSSSSSSSSSSS",
"SSSSSSSSSSSSSSSSSSSSSSSSSSSSSSSSSSSSSSSSSSSSSSSSSSSSSSSSSSSSSSSS",
"SSSSSSSSSSSSSSSSSSSSSSSSSSSSSSSSSSSSSSSSSSSSSSSSSSSSSSSSSSSSSSSS",
"SSSSSSSSSSSSSSSSSSSSSSSSSSSSSSSSSSSSSSSSSSSSSSSSSSSSSSSSSSSSSSSS",
"SSSSSSSSSSSSSSSSSSSSSSSSSSSSSSSSSSSSSSSSSSSSSSSSSSSSSSSSSSSSSSSS",
"SSSSSSSSSSSSSSSSSSSSSSSSSSSSSSSSSSSSSSSSSSSSSSSSSSSSSSSSSSSSSSSS"
};
