/* XPM */
static char * xpm[] = {
"64 64 4 1",
"S c #6EC5FF",
"G c #2ECC71",
"g c #1E8449",
"L c #A9DFBF",
"SSSSSSSSSSSSSSSSSSSSSSSSSSSSSSSSSSSSSSSSSSSSSSSSSSSSSSSSSSSSSSSS",
"SSSSSSSSSSSSSSSSSSSSSSSSSSSSSSSSSSSSSSSSSSSSSSSSSSSSSSSSSSSSSSSS",
"SSSSSSSSSSSSSSSSSSSSSSSSSSSSSSSSSSSSSSSSSSSSSSSSSSSSSSSSSSSSSSSS",
"SSSSSSSSSSSSSSSSSSSSSSSSSSSSSSSSSSSSSSSSSSSSSSSSSSSSSSSSSSSSSSSS",
"SSSSSSSSSSSSSSSSSSSSSSSSSSSSSSSSSSSSSSSSSSSSSSSSSSSSSSSSSSSSSSSS",
"SSSSSSSSSSSSSSSSSSSSSSSSSSSSSSSSSSSSSSSSSSSSSSSSSSSSSSSSSSSSSSSS",
"SSSSSSSSSSSSSSSSSSSSSSSSSSSSSSSSSSSSSSSSSSSSSSSSSSSSSSSSSSSSSSSS",
"SSSSSSSSSSSSSSSSSSSSSSSSSSSSSSSSSSSSSSSSSSSSSSSSSSSSSSSSSSSSSSSS",
"SSSSSSSSSSSSSSSSSSSSSSSSSSSSSSSSSSSSSSSSSSSSSSSSSSSSSSSSSSSSSSSS",
"SSSSSSSSSSSSSSSSSSSSSSSSSSSSSSSSSSSSSSSSSSSSSSSSSSSSSSSSSSSSSSSS",
"SSSSSSSSSSSSSSSSSSSSSSSSSSSSSSSSSSSSSSSSSSSSSSSSSSSSSSSSSSSSSSSS",
"SSSSSSSSSSSSSSSSSSSSSSSSSSSSSSSSSSSSSSSSSSSSSSSSSSSSSSSSSSSSSSSS",
"SSSSSSSSSSSSSSSSSSSSSSSSSSSSSSSSSSSSSSSSSSSSSSSSSSSSSSSSSSSSSSSS",
"SSSSSSSSSSSSSSSSSSSSSSSSSSSSSSSSSSSSSSSSSSSSSSSSSSSSSSSSSSSSSSSS",
"SSSSSSSSSSSSggggggggggggggggggggggggggggggggggggLLLLSSSSSSSSSSSS",
"SSSSSSSSSSSSggggggggggggggggggggggggggggggggggggLLLLSSSSSSSSSSSS",
"SSSSSSSSSSSSggggggggggggggggggggggggggggggggggggLLLLSSSSSSSSSSSS",
"SSSSSSSSSSSSggggggggggggggggggggggggggggggggggggLLLLSSSSSSSSSSSS",
"SSSSSSSSSSSSGGGGGGGGGGGGGGGGGGGGGGGGGGGGGGGGGGGGGGGGSSSSSSSSSSSS",
"SSSSSSSSSSSSGGGGGGGGGGGGGGGGGGGGGGGGGGGGGGGGGGGGGGGGSSSSSSSSSSSS",
"SSSSSSSSSSSSGGGGGGGGGGGGGGGGGGGGGGGGGGGGGGGGGGGGGGGGSSSSSSSSSSSS",
"SSSSSSSSSSSSGGGGGGGGGGGGGGGGGGGGGGGGGGGGGGGGGGGGGGGGSSSSSSSSSSSS",
"SSSSSSSSSSSSSSSSSSGGggggGGGGGGGGGGGGGGGGGGGLGGSSSSSSSSSSSSSSSSSS",
"SSSSSSSSSSSSSSSSSSGGggggGGGGGGGGGGGGGGGGGGGLGGSSSSSSSSSSSSSSSSSS",
"SSSSSSSSSSSSSSSSSSGGggggGGGGGGGGGGGGGGGGGGGLGGSSSSSSSSSSSSSSSSSS",
"SSSSSSSSSSSSSSSSSSGGggggGGGGGGGGGGGGGGGGGGGLGGSSSSSSSSSSSSSSSSSS",
"SSSSSSSSSSSSSSSSSSGGggggGGGGGGGGGGGGGGGGGGGLGGSSSSSSSSSSSSSSSSSS",
"SSSSSSSSSSSSSSSSSSGGggggGGGGGGGGGGGGGGGGGGGLGGSSSSSSSSSSSSSSSSSS",
"SSSSSSSSSSSSSSSSSSGGggggGGGGGGGGGGGGGGGGGGGLGGSSSSSSSSSSSSSSSSSS",
"SSSSSSSSSSSSSSSSSSGGggggGGGGGGGGGGGGGGGGGGGLGGSSSSSSSSSSSSSSSSSS",
"SSSSSSSSSSSSSSSSSSGGggggGGGGGGGGGGGGGGGGGGGLGGSSSSSSSSSSSSSSSSSS",
"SSSSSSSSSSSSSSSSSSGGggggGGGGGGGGGGGGGGGGGGGLGGSSSSSSSSSSSSSSSSSS",
"SSSSSSSSSSSSSSSSSSGGggggGGGGGGGGGGGGGGGGGGGLGGSSSSSSSSSSSSSSSSSS",
"SSSSSSSSSSSSSSSSSSGGggggGGGGGGGGGGGGGGGGGGGLGGSSSSSSSSSSSSSSSSSS",
"SSSSSSSSSSSSSSSSSSGGggggGGGGGGGGGGGGGGGGGGGLGGSSSSSSSSSSSSSSSSSS",
"SSSSSSSSSSSSSSSSSSGGggggGGGGGGGGGGGGGGGGGGGLGGSSSSSSSSSSSSSSSSSS",
"SSSSSSSSSSSSSSSSSSGGggggGGGGGGGGGGGGGGGGGGGLGGSSSSSSSSSSSSSSSSSS",
"SSSSSSSSSSSSSSSSSSGGggggGGGGGGGGGGGGGGGGGGGLGGSSSSSSSSSSSSSSSSSS",
"SSSSSSSSSSSSSSSSSSGGggggGGGGGGGGGGGGGGGGGGGLGGSSSSSSSSSSSSSSSSSS",
"SSSSSSSSSSSSSSSSSSGGggggGGGGGGGGGGGGGGGGGGGLGGSSSSSSSSSSSSSSSSSS",
"SSSSSSSSSSSSSSSSSSGGggggGGGGGGGGGGGGGGGGGGGLGGSSSSSSSSSSSSSSSSSS",
"SSSSSSSSSSSSSSSSSSGGggggGGGGGGGGGGGGGGGGGGGLGGSSSSSSSSSSSSSSSSSS",
"SSSSSSSSSSSSSSSSSSGGggggGGGGGGGGGGGGGGGGGGGLGGSSSSSSSSSSSSSSSSSS",
"SSSSSSSSSSSSSSSSSSGGggggGGGGGGGGGGGGGGGGGGGLGGSSSSSSSSSSSSSSSSSS",
"SSSSSSSSSSSSSSSSSSGGggggGGGGGGGGGGGGGGGGGGGLGGSSSSSSSSSSSSSSSSSS",
"SSSSSSSSSSSSSSSSSSGGggggGGGGGGGGGGGGGGGGGGGLGGSSSSSSSSSSSSSSSSSS",
"SSSSSSSSSSSSSSSSSSGGggggGGGGGGGGGGGGGGGGGGGLGGSSSSSSSSSSSSSSSSSS",
"SSSSSSSSSSSSSSSSSSGGggggGGGGGGGGGGGGGGGGGGGLGGSSSSSSSSSSSSSSSSSS",
"SSSSSSSSSSSSSSSSSSGGggggGGGGGGGGGGGGGGGGGGGLGGSSSSSSSSSSSSSSSSSS",
"SSSSSSSSSSSSSSSSSSGGggggGGGGGGGGGGGGGGGGGGGLGGSSSSSSSSSSSSSSSSSS",
"SSSSSSSSSSSSSSSSSSGGggggGGGGGGGGGGGGGGGGGGGLGGSSSSSSSSSSSSSSSSSS",
"SSSSSSSSSSSSSSSSSSGGggggGGGGGGGGGGGGGGGGGGGLGGSSSSSSSSSSSSSSSSSS",
"SSSSSSSSSSSSSSSSSSGGggggGGGGGGGGGGGGGGGGGGGLGGSSSSSSSSSSSSSSSSSS",
"SSSSSSSSSSSSSSSSSSGGggggGGGGGGGGGGGGGGGGGGGLGGSSSSSSSSSSSSSSSSSS",
"SSSSSSSSSSSSSSSSSSGGggggGGGGGGGGGGGGGGGGGGGLGGSSSSSSSSSSSSSSSSSS",
"SSSSSSSSSSSSSSSSSSGGggggGGGGGGGGGGGGGGGGGGGLGGSSSSSSSSSSSSSSSSSS",
"SSSSSSSSSSSSSSSSSSGGggggGGGGGGGGGGGGGGGGGGGLGGSSSSSSSSSSSSSSSSSS",
"SSSSSSSSSSSSSSSSSSGGggggGGGGGGGGGGGGGGGGGGGLGGSSSSSSSSSSSSSSSSSS",
"SSSSSSSSSSSSSSSSSSGGggggGGGGGGGGGGGGGGGGGGGLGGSSSSSSSSSSSSSSSSSS",
"SSSSSSSSSSSSSSSSSSGGggggGGGGGGGGGGGGGGGGGGGLGGSSSSSSSSSSSSSSSSSS",
"SSSSSSSSSSSSSSSSSSSSSSSSSSSSSSSSSSSSSSSSSSSSSSSSSSSSSSSSSSSSSSSS",
"SSSSSSSSSSSSSSSSSSSSSSSSSSSSSSSSSSSSSSSSSSSSSSSSSSSSSSSSSSSSSSSS",
"SSSSSSSSSSSSSSSSSSSSSSSSSSSSSSSSSSSSSSSSSSSSSSSSSSSSSSSSSSSSSSSS",
"SSSSSSSSSSSSSSSSSSSSSSSSSSSSSSSSSSSSSSSSSSSSSSSSSSSSSSSSSSSSSSSS"
};
