/* XPM */
static char * xpm[] = {
"64 64 7 1",
"S c #6EC5FF",
"R c #C0392B",
"K c #F5CBA7",
"B c #2E86C1",
"D c #1B2631",
"N c #6E2C00",
"W c #FFFFFF",
"SSSSSSSSSSSSSSSSSSSSSSSSSSSSSSSSSSSSSSSSSSSSSSSSSSSSSSSSSSSSSSSS",
"SSSSSSSSSSSSSSSSSSSSSSSSSSSSSSSSSSSSSSSSSSSSSSSSSSSSSSSSSSSSSSSS",
"SSSSSSSSSSSSSSSSSSSSSSSSSSSSSSSSSSSSSSSSSSSSSSSSSSSSSSSSSSSSSSSS",
"SSSSSSSSSSSSSSSSSSSSSSSSSSSSSSSSSSSSSSSSSSSSSSSSSSSSSSSSSSSSSSSS",
"SSSSSSSSSSSSSSSSSSSSSSSSSSSSSSSSSSSSSSSSSSSSSSSSSSSSSSSSSSSSSSSS",
"SSSSSSSSSSSSSSSSSSSSSSSSSSSSSSSSSSSSSSSSSSSSSSSSSSSSSSSSSSSSSSSS",
"SSSSSSSSSSSSSSSSSSSSSSSSSSSSSSSSSSSSSSSSSSSSSSSSSSSSSSSSSSSSSSSS",
"SSSSSSSSSSSSSSSSSSSSSSSSSSSSSSSSSSSSSSSSSSSSSSSSSSSSSSSSSSSSSSSS",
"SSSSSSSSSSSSSSSSSSSSSSSSSSSSSSSSSSSSSSSSSSSSSSSSSSSSSSSSSSSSSSSS",
"SSSSSSSSSSSSSSSSSSSSSSSSSSSSSSSSSSSSSSSSSSSSSSSSSSSSSSSSSSSSSSSS",
"SSSSSSSSSSSSSSSSSSSSSSSSSSSSSSSSSSSSSSSSSSSSSSSSSSSSSSSSSSSSSSSS",
"SSSSSSSSSSSSSSSSSSSSSSSSSSSSSSSSSSSSSSSSSSSSSSSSSSSSSSSSSSSSSSSS",
"SSSSSSSSSSSSSSSSSSSSRRRRRRRRRRRRRRRRRRRRRRRRSSSSSSSSSSSSSSSSSSSS",
"SSSSSSSSSSSSSSSSSSSSRRRRRRRRRRRRRRRRRRRRRRRRSSSSSSSSSSSSSSSSSSSS",
"SSSSSSSSSSSSSSSSSSSSRRRRRRRRRRRRRRRRRRRRRRRRSSSSSSSSSSSSSSSSSSSS",
"SSSSSSSSSSSSSSSSSSSSRRRRRRRRRRRRRRRRRRRRRRRRSSSSSSSSSSSSSSSSSSSS",
"SSSSSSSSSSSSSSSSSSSSRRRRRRRRRRRRRRRRRRRRRRRRSSSSSSSSSSSSSSSSSSSS",
"SSSSSSSSSSSSSSSSSSSSRRRRRRRRRRRRRRRRRRRRRRRRSSSSSSSSSSSSSSSSSSSS",
"SSSSSSSSSSSSSSSSSSSSRRNNRRRRRRRRRRRRRRRRNNRRSSSSSSSSSSSSSSSSSSSS",
"SSSSSSSSSSSSSSSSSSSSRRNNRRRRRRRRRRRRRRRRNNRRSSSSSSSSSSSSSSSSSSSS",
"SSSSSSSSSSSSSSSSSSRRRRNNRRRRRRRRRRRRRRRRNNRRRRSSSSSSSSSSSSSSSSSS",
"SSSSSSSSSSSSSSSSSSSSSSNNKKKKKKKKKKKKKKKKNNSSSSSSSSSSSSSSSSSSSSSS",
"SSSSSSSSSSSSSSSSSSSSSSSSKKKKKKKKKKKKKKKKSSSSSSSSSSSSSSSSSSSSSSSS",
"SSSSSSSSSSSSSSSSSSSSSSSSKKKKKKKKKKKKKKKKSSSSSSSSSSSSSSSSSSSSSSSS",
"SSSSSSSSSSSSSSSSSSSSSSSSKKKKDKKKKKKDKKKKSSSSSSSSSSSSSSSSSSSSSSSS",
"SSSSSSSSSSSSSSSSSSSSSSSSKKKKKKKKKKKKKKKKSSSSSSSSSSSSSSSSSSSSSSSS",
"SSSSSSSSSSSSSSSSSSSSSSSSKKKKKKKKKKKKKKKKSSSSSSSSSSSSSSSSSSSSSSSS",
"SSSSSSSSSSSSSSSSSSSSSSSSKKKKKKKKKKKKKKKKSSSSSSSSSSSSSSSSSSSSSSSS",
"SSSSSSSSSSSSSSSSSSSSSSSSKKKKKKKKKKKKKKKKSSSSSSSSSSSSSSSSSSSSSSSS",
"SSSSSSSSSSSSSSSSSSSSSSSSKKKKKKKKKKKKKKKKSSSSSSSSSSSSSSSSSSSSSSSS",
"SSSSSSSSSSSSSSSSSSSSSSSSSSSSSSSSSSSSSSSSSSSSSSSSSSSSSSSSSSSSSSSS",
"SSSSSSSSSSSSSSSSSSSSSSSSSSSSSSSSSSSSSSSSSSSSSSSSSSSSSSSSSSSSSSSS",
"SSSSSSSSSSSSSSSSSSSSSSRRRRBRRRRRRRRRRRBRRRSSSSSSSSSSSSSSSSSSSSSS",
"SSSSSSSSSSSSSSSSSSSSSSRRRRBRRRRRRRRRRRBRRRSSSSSSSSSSSSSSSSSSSSSS",
"SSSSSSSSSSSSSSSSRRRRRRRRRRBRRRRRRRRRRRBRRRRRRRRRSSSSSSSSSSSSSSSS",
"SSSSSSSSSSSSSSSSRRRRRRRRRRBRRRRRRRRRRRBRRRRRRRRRSSSSSSSSSSSSSSSS",
"SSSSSSSSSSSSSSKKRRRRRRRRRRBWRRRRRRRRRWBRRRRRRRRRKKSSSSSSSSSSSSSS",
"SSSSSSSSSSSSSSKKRRRRRRRRRRBRRRRRRRRRRRBRRRRRRRRRKKSSSSSSSSSSSSSS",
"SSSSSSSSSSSSSSKKSSSSSSRRRRBRRRRRRRRRRRBRRRSSSSSSKKSSSSSSSSSSSSSS",
"SSSSSSSSSSSSSSKKSSSSSSRRRRBRRRRRRRRRRRBRRRSSSSSSKKSSSSSSSSSSSSSS",
"SSSSSSSSSSSSSSSSSSSSSSRRRRBRRRRRRRRRRRBRRRSSSSSSSSSSSSSSSSSSSSSS",
"SSSSSSSSSSSSSSSSSSSSSSRRRRBRRRRRRRRRRRBRRRSSSSSSSSSSSSSSSSSSSSSS",
"SSSSSSSSSSSSSSSSSSSSSSRRRRBRRRRRRRRRRRBRRRSSSSSSSSSSSSSSSSSSSSSS",
"SSSSSSSSSSSSSSSSSSSSSSRRRRBRRRRRRRRRRRBRRRSSSSSSSSSSSSSSSSSSSSSS",
"SSSSSSSSSSSSSSSSSSSSSSSSBBBBBBBBBBBBBBBBSSSSSSSSSSSSSSSSSSSSSSSS",
"SSSSSSSSSSSSSSSSSSSSSSSSBBBBBBBBBBBBBBBBSSSSSSSSSSSSSSSSSSSSSSSS",
"SSSSSSSSSSSSSSSSSSSSSSSSBBBBBBBBBBBBBBBBSSSSSSSSSSSSSSSSSSSSSSSS",
"SSSSSSSSSSSSSSSSSSSSSSSSBBBBBBBBBBBBBBBBSSSSSSSSSSSSSSSSSSSSSSSS",
"SSSSSSSSSSSSSSSSSSSSSSSSBBBBBBBBBBBBBBBBSSSSSSSSSSSSSSSSSSSSSSSS",
"SSSSSSSSSSSSSSSSSSSSSSSSBBBBBBBBBBBBBBBBSSSSSSSSSSSSSSSSSSSSSSSS",
"SSSSSSSSSSSSSSSSSSSSSSSSBBBBBBBBBBBBBBBBSSSSSSSSSSSSSSSSSSSSSSSS",
"SSSSSSSSSSSSSSSSSSSSSSSSBBBBBBBBBBBBBBBBSSSSSSSSSSSSSSSSSSSSSSSS",
"SSSSSSSSSSSSSSSSSSSSSSSSBBBBBBBBBBBBBBBBSSSSSSSSSSSSSSSSSSSSSSSS",
"SSSSSSSSSSSSSSSSSSSSSSSSBBBBBBBBBBBBBBBBSSSSSSSSSSSSSSSSSSSSSSSS",
"SSSSSSSSSSSSSSSSSSSSSSSSBBBBBBBBBBBBBBBBSSSSSSSSSSSSSSSSSSSSSSSS",
"SSSSSSSSSSSSSSSSSSSSSSSSBBBBBBBBBBBBBBBBSSSSSSSSSSSSSSSSSSSSSSSS",
"SSSSSSSSSSSSSSSSSSSSSSNNNNNNBBBBBBBBNNNNNNSSSSSSSSSSSSSSSSSSSSSS",
"SSSSSSSSSSSSSSSSSSSSSSNNNNNNBBBBBBBBNNNNNNSSSSSSSSSSSSSSSSSSSSSS",
"SSSSSSSSSSSSSSSSSSSSSSNNNNNNBBBBBBBBNNNNNNSSSSSSSSSSSSSSSSSSSSSS",
"SSSSSSSSSSSSSSSSSSSSSSNNNNNNBBBBBBBBNNNNNNSSSSSSSSSSSSSSSSSSSSSS",
"SSSSSSSSSSSSSSSSSSSSSSSSSSSSSSSSSSSSSSSSSSSSSSSSSSSSSSSSSSSSSSSS",
"SSSSSSSSSSSSSSSSSSSSSSSSSSSSSSSSSSSSSSSSSSSSSSSSSSSSSSSSSSSSSSSS",
"SSSSSSSSSSSSSSSSSSSSSSSSSSSSSSSSSSSSSSSSSSSSSSSSSSSSSSSSSSSSSSSS",
"SSSSSSSSSSSSSSSSSSSSSSSSSSSSSSSSSSSSSSSSSSSSSSSSSSSSSSSSSSSSSSSS"
};
