/* XPM */
static char * xpm[] = {
"64 64 3 1",
"B c #B0502A",
"D c #8F3E20",
"M c #4B2815",
"MMMMMMMMMMMMMMMMMMMMMMMMMMMMMMMMMMMMMMMMMMMMMMMMMMMMMMMMMMMMMMMM",
"MDDDDDDDBBBBBBBBMDDDDDDDBBBBBBBBMDDDDDDDBBBBBBBBMDDDDDDDBBBBBBBB",
"MDDDDDDDBBBBBBBBMDDDDDDDBBBBBBBBMDDDDDDDBBBBBBBBMDDDDDDDBBBBBBBB",
"MDDDDDDDBBBBBBBBMDDDDDDDBBBBBBBBMDDDDDDDBBBBBBBBMDDDDDDDBBBBBBBB",
"MDDDDDDDBBBBBBBBMDDDDDDDBBBBBBBBMDDDDDDDBBBBBBBBMDDDDDDDBBBBBBBB",
"MDDDDDDDBBBBBBBBMDDDDDDDBBBBBBBBMDDDDDDDBBBBBBBBMDDDDDDDBBBBBBBB",
"MDDDDDDDBBBBBBBBMDDDDDDDBBBBBBBBMDDDDDDDBBBBBBBBMDDDDDDDBBBBBBBB",
"MDDDDDDDBBBBBBBBMDDDDDDDBBBBBBBBMDDDDDDDBBBBBBBBMDDDDDDDBBBBBBBB",
"MMMMMMMMMMMMMMMMMMMMMMMMMMMMMMMMMMMMMMMMMMMMMMMMMMMMMMMMMMMMMMMM",
"BBBBBBBBMDDDDDDDBBBBBBBBMDDDDDDDBBBBBBBBMDDDDDDDBBBBBBBBMDDDDDDD",
"BBBBBBBBMDDDDDDDBBBBBBBBMDDDDDDDBBBBBBBBMDDDDDDDBBBBBBBBMDDDDDDD",
"BBBBBBBBMDDDDDDDBBBBBBBBMDDDDDDDBBBBBBBBMDDDDDDDBBBBBBBBMDDDDDDD",
"BBBBBBBBMDDDDDDDBBBBBBBBMDDDDDDDBBBBBBBBMDDDDDDDBBBBBBBBMDDDDDDD",
"BBBBBBBBMDDDDDDDBBBBBBBBMDDDDDDDBBBBBBBBMDDDDDDDBBBBBBBBMDDDDDDD",
"BBBBBBBBMDDDDDDDBBBBBBBBMDDDDDDDBBBBBBBBMDDDDDDDBBBBBBBBMDDDDDDD",
"BBBBBBBBMDDDDDDDBBBBBBBBMDDDDDDDBBBBBBBBMDDDDDDDBBBBBBBBMDDDDDDD",
"MMMMMMMMMMMMMMMMMMMMMMMMMMMMMMMMMMMMMMMMMMMMMMMMMMMMMMMMMMMMMMMM",
"MDDDDDDDBBBBBBBBMDDDDDDDBBBBBBBBMDDDDDDDBBBBBBBBMDDDDDDDBBBBBBBB",
"MDDDDDDDBBBBBBBBMDDDDDDDBBBBBBBBMDDDDDDDBBBBBBBBMDDDDDDDBBBBBBBB",
"MDDDDDDDBBBBBBBBMDDDDDDDBBBBBBBBMDDDDDDDBBBBBBBBMDDDDDDDBBBBBBBB",
"MDDDDDDDBBBBBBBBMDDDDDDDBBBBBBBBMDDDDDDDBBBBBBBBMDDDDDDDBBBBBBBB",
"MDDDDDDDBBBBBBBBMDDDDDDDBBBBBBBBMDDDDDDDBBBBBBBBMDDDDDDDBBBBBBBB",
"MDDDDDDDBBBBBBBBMDDDDDDDBBBBBBBBMDDDDDDDBBBBBBBBMDDDDDDDBBBBBBBB",
"MDDDDDDDBBBBBBBBMDDDDDDDBBBBBBBBMDDDDDDDBBBBBBBBMDDDDDDDBBBBBBBB",
"MMMMMMMMMMMMMMMMMMMMMMMMMMMMMMMMMMMMMMMMMMMMMMMMMMMMMMMMMMMMMMMM",
"BBBBBBBBMDDDDDDDBBBBBBBBMDDDDDDDBBBBBBBBMDDDDDDDBBBBBBBBMDDDDDDD",
"BBBBBBBBMDDDDDDDBBBBBBBBMDDDDDDDBBBBBBBBMDDDDDDDBBBBBBBBMDDDDDDD",
"BBBBBBBBMDDDDDDDBBBBBBBBMDDDDDDDBBBBBBBBMDDDDDDDBBBBBBBBMDDDDDDD",
"BBBBBBBBMDDDDDDDBBBBBBBBMDDDDDDDBBBBBBBBMDDDDDDDBBBBBBBBMDDDDDDD",
"BBBBBBBBMDDDDDDDBBBBBBBBMDDDDDDDBBBBBBBBMDDDDDDDBBBBBBBBMDDDDDDD",
"BBBBBBBBMDDDDDDDBBBBBBBBMDDDDDDDBBBBBBBBMDDDDDDDBBBBBBBBMDDDDDDD",
"BBBBBBBBMDDDDDDDBBBBBBBBMDDDDDDDBBBBBBBBMDDDDDDDBBBBBBBBMDDDDDDD",
"MMMMMMMMMMMMMMMMMMMMMMMMMMMMMMMMMMMMMMMMMMMMMMMMMMMMMMMMMMMMMMMM",
"MDDDDDDDBBBBBBBBMDDDDDDDBBBBBBBBMDDDDDDDBBBBBBBBMDDDDDDDBBBBBBBB",
"MDDDDDDDBBBBBBBBMDDDDDDDBBBBBBBBMDDDDDDDBBBBBBBBMDDDDDDDBBBBBBBB",
"MDDDDDDDBBBBBBBBMDDDDDDDBBBBBBBBMDDDDDDDBBBBBBBBMDDDDDDDBBBBBBBB",
"MDDDDDDDBBBBBBBBMDDDDDDDBBBBBBBBMDDDDDDDBBBBBBBBMDDDDDDDBBBBBBBB",
"MDDDDDDDBBBBBBBBMDDDDDDDBBBBBBBBMDDDDDDDBBBBBBBBMDDDDDDDBBBBBBBB",
"MDDDDDDDBBBBBBBBMDDDDDDDBBBBBBBBMDDDDDDDBBBBBBBBMDDDDDDDBBBBBBBB",
"MDDDDDDDBBBBBBBBMDDDDDDDBBBBBBBBMDDDDDDDBBBBBBBBMDDDDDDDBBBBBBBB",
"MMMMMMMMMMMMMMMMMMMMMMMMMMMMMMMMMMMMMMMMMMMMMMMMMMMMMMMMMMMMMMMM",
"BBBBBBBBMDDDDDDDBBBBBBBBMDDDDDDDBBBBBBBBMDDDDDDDBBBBBBBBMDDDDDDD",
"BBBBBBBBMDDDDDDDBBBBBBBBMDDDDDDDBBBBBBBBMDDDDDDDBBBBBBBBMDDDDDDD",
"BBBBBBBBMDDDDDDDBBBBBBBBMDDDDDDDBBBBBBBBMDDDDDDDBBBBBBBBMDDDDDDD",
"BBBBBBBBMDDDDDDDBBBBBBBBMDDDDDDDBBBBBBBBMDDDDDDDBBBBBBBBMDDDDDDD",
"BBBBBBBBMDDDDDDDBBBBBBBBMDDDDDDDBBBBBBBBMDDDDDDDBBBBBBBBMDDDDDDD",
"BBBBBBBBMDDDDDDDBBBBBBBBMDDDDDDDBBBBBBBBMDDDDDDDBBBBBBBBMDDDDDDD",
"BBBBBBBBMDDDDDDDBBBBBBBBMDDDDDDDBBBBBBBBMDDDDDDDBBBBBBBBMDDDDDDD",
"MMMMMMMMMMMMMMMMMMMMMMMMMMMMMMMMMMMMMMMMMMMMMMMMMMMMMMMMMMMMMMMM",
"MDDDDDDDBBBBBBBBMDDDDDDDBBBBBBBBMDDDDDDDBBBBBBBBMDDDDDDDBBBBBBBB",
"MDDDDDDDBBBBBBBBMDDDDDDDBBBBBBBBMDDDDDDDBBBBBBBBMDDDDDDDBBBBBBBB",
"MDDDDDDDBBBBBBBBMDDDDDDDBBBBBBBBMDDDDDDDBBBBBBBBMDDDDDDDBBBBBBBB",
"MDDDDDDDBBBBBBBBMDDDDDDDBBBBBBBBMDDDDDDDBBBBBBBBMDDDDDDDBBBBBBBB",
"MDDDDDDDBBBBBBBBMDDDDDDDBBBBBBBBMDDDDDDDBBBBBBBBMDDDDDDDBBBBBBBB",
"MDDDDDDDBBBBBBBBMDDDDDDDBBBBBBBBMDDDDDDDBBBBBBBBMDDDDDDDBBBBBBBB",
"MDDDDDDDBBBBBBBBMDDDDDDDBBBBBBBBMDDDDDDDBBBBBBBBMDDDDDDDBBBBBBBB",
"MMMMMMMMMMMMMMMMMMMMMMMMMMMMMMMMMMMMMMMMMMMMMMMMMMMMMMMMMMMMMMMM",
"BBBBBBBBMDDDDDDDBBBBBBBBMDDDDDDDBBBBBBBBMDDDDDDDBBBBBBBBMDDDDDDD",
"BBBBBBBBMDDDDDDDBBBBBBBBMDDDDDDDBBBBBBBBMDDDDDDDBBBBBBBBMDDDDDDD",
"BBBBBBBBMDDDDDDDBBBBBBBBMDDDDDDDBBBBBBBBMDDDDDDDBBBBBBBBMDDDDDDD",
"BBBBBBBBMDDDDDDDBBBBBBBBMDDDDDDDBBBBBBBBMDDDDDDDBBBBBBBBMDDDDDDD",
"BBBBBBBBMDDDDDDDBBBBBBBBMDDDDDDDBBBBBBBBMDDDDDDDBBBBBBBBMDDDDDDD",
"BBBBBBBBMDDDDDDDBBBBBBBBMDDDDDDDBBBBBBBBMDDDDDDDBBBBBBBBMDDDDDDD",
"BBBBBBBBMDDDDDDDBBBBBBBBMDDDDDDDBBBBBBBBMDDDDDDDBBBBBBBBMDDDDDDD"
};
